<svg width="36" height="36" viewBox="0 0 36 36" fill="none" xmlns="http://www.w3.org/2000/svg">
<path d="M33 16.305L28.89 13.92C29.25 13.605 29.595 13.2 29.85 12.75C31.095 10.605 30.36 7.84501 28.2 6.60001C26.91 5.85001 25.395 5.85001 24.12 6.39001L24.135 6.37501L22.815 6.96001L22.65 5.52001L22.635 5.53501C22.5 4.17001 21.705 2.85001 20.415 2.10001C18.255 0.862506 15.51 1.60501 14.25 3.75001C13.995 4.20001 13.83 4.69501 13.74 5.17501L9.615 2.80501C8.175 1.98001 6.345 2.46001 5.52 3.90001L3.27 7.80001C2.85 8.52001 3.105 9.43501 3.825 9.84001L6.42 11.34L12.75 15H3V30C3 31.665 4.35 33 6 33H30C31.665 33 33 31.665 33 30V22.305L34.095 20.4C34.92 18.96 34.44 17.13 33 16.305ZM24.66 9.75001C25.065 9.00001 25.995 8.79001 26.7 9.19501C27.42 9.61501 27.675 10.5 27.255 11.25C26.835 12 25.92 12.21 25.2 11.805C24.495 11.385 24.24 10.5 24.66 9.75001ZM21.105 12.9L31.5 18.9L30 21.495L19.605 15.495L21.105 12.9ZM16.5 30H6V18H16.5V30ZM17.01 13.995L6.615 7.99501L8.115 5.40001L18.51 11.4L17.01 13.995ZM17.415 7.30501C16.695 6.88501 16.455 6.00001 16.86 5.25001C17.25 4.50001 18.195 4.29001 18.915 4.69501C19.635 5.11501 19.875 6.00001 19.455 6.75001C19.05 7.50001 18.135 7.71001 17.415 7.30501ZM19.5 30V18.9L30 24.96V30H19.5Z" fill="black"/>
</svg>
