<svg width="856" height="545" viewBox="0 0 856 545" fill="none" xmlns="http://www.w3.org/2000/svg">
<g filter="url(#filter0_f)">
<ellipse cx="427.673" cy="496.761" rx="383.591" ry="4.23858" fill="black"/>
</g>
<path d="M84.0761 28C84.0761 13.0883 96.1645 1 111.076 1H746.812C761.724 1 773.812 13.0883 773.812 28V465.635C773.812 467.291 772.469 468.635 770.812 468.635H87.0761C85.4193 468.635 84.0761 467.291 84.0761 465.635V28Z" fill="#1A202C" stroke="#4A5568" stroke-width="2"/>
<path d="M87.3147 26.2383C87.3147 14.088 97.1645 4.23828 109.315 4.23828H748.574C760.724 4.23828 770.574 14.088 770.574 26.2383V451.832H87.3147V26.2383Z" fill="black"/>
<path d="M6.10352e-05 468.244C6.10352e-05 467.14 0.895492 466.244 2.00006 466.244H852.497C853.602 466.244 854.497 467.14 854.497 468.244V481.503H6.10352e-05V468.244Z" fill="#A3ACB1"/>
<path d="M6.10352e-05 468.244C6.10352e-05 467.14 0.895492 466.244 2.00006 466.244H852.497C853.602 466.244 854.497 467.14 854.497 468.244V481.503H6.10352e-05V468.244Z" fill="url(#paint0_linear)"/>
<path d="M6.10352e-05 481.503H854.497L843.204 483.781C817.172 489.031 790.681 491.676 764.124 491.676H89.6856C60.5007 491.676 31.4034 488.481 2.91342 482.15L6.10352e-05 481.503Z" fill="#647279"/>
<path d="M6.10352e-05 481.503H854.497L843.204 483.781C817.172 489.031 790.681 491.676 764.124 491.676H89.6856C60.5007 491.676 31.4034 488.481 2.91342 482.15L6.10352e-05 481.503Z" fill="url(#paint1_linear)"/>
<path fill-rule="evenodd" clip-rule="evenodd" d="M356.916 466.244C357.352 472.872 362.866 478.112 369.604 478.112H485.741C492.479 478.112 497.993 472.872 498.429 466.244H356.916Z" fill="#96A1A8"/>
<path fill-rule="evenodd" clip-rule="evenodd" d="M356.916 466.244C357.352 472.872 362.866 478.112 369.604 478.112H485.741C492.479 478.112 497.993 472.872 498.429 466.244H356.916Z" fill="url(#paint2_linear)"/>
<defs>
<filter id="filter0_f" x="0.0812073" y="448.522" width="855.183" height="96.4772" filterUnits="userSpaceOnUse" color-interpolation-filters="sRGB">
<feFlood flood-opacity="0" result="BackgroundImageFix"/>
<feBlend mode="normal" in="SourceGraphic" in2="BackgroundImageFix" result="shape"/>
<feGaussianBlur stdDeviation="22" result="effect1_foregroundBlur"/>
</filter>
<linearGradient id="paint0_linear" x1="6.1035e-05" y1="473.874" x2="854.497" y2="473.874" gradientUnits="userSpaceOnUse">
<stop stop-color="#0D1012"/>
<stop offset="0.0295345" stop-color="#CAD4DB"/>
<stop offset="0.0625" stop-color="#242729"/>
<stop offset="0.133609" stop-color="#A3ACB1"/>
<stop offset="0.865967" stop-color="#A3ACB1"/>
<stop offset="0.941937" stop-color="#242729"/>
<stop offset="0.971275" stop-color="#CAD4DB"/>
<stop offset="0.996436" stop-color="#0D1012"/>
</linearGradient>
<linearGradient id="paint1_linear" x1="427.249" y1="481.503" x2="427.249" y2="491.676" gradientUnits="userSpaceOnUse">
<stop stop-color="#7A7F83"/>
<stop offset="1" stop-color="#0B0B0E"/>
</linearGradient>
<linearGradient id="paint2_linear" x1="370.876" y1="473.45" x2="487.013" y2="473.45" gradientUnits="userSpaceOnUse">
<stop stop-color="#3C3C3C"/>
<stop offset="0.317518" stop-color="#3C3C3C" stop-opacity="0"/>
<stop offset="0.660584" stop-color="#3C3C3C" stop-opacity="0"/>
<stop offset="1" stop-color="#444444"/>
</linearGradient>
</defs>
</svg>
